<svg width="30" height="30" viewBox="0 0 30 30" fill="none" xmlns="http://www.w3.org/2000/svg">
<circle cx="15" cy="15" r="15" fill="#4447E2"/>
<path fill-rule="evenodd" clip-rule="evenodd" d="M22.4933 10.8025C22.4916 10.7425 22.4741 10.6858 22.4583 10.6283C22.4458 10.58 22.4399 10.5308 22.4191 10.4867C22.3999 10.4433 22.3674 10.4083 22.3391 10.3683C22.3041 10.3175 22.2724 10.2667 22.2274 10.225C22.2199 10.2175 22.2166 10.2075 22.2083 10.2008C22.1783 10.175 22.1416 10.1658 22.1091 10.145C22.0591 10.1125 22.0099 10.0792 21.9533 10.0575C21.8974 10.0375 21.8424 10.0325 21.7849 10.0242C21.7449 10.0183 21.7091 10 21.6666 10H17.4999C17.0391 10 16.6666 10.3733 16.6666 10.8333C16.6666 11.2933 17.0391 11.6667 17.4999 11.6667H19.8549L16.4916 15.59L12.9283 13.4525C12.5758 13.2392 12.1224 13.3175 11.8591 13.6333L7.69242 18.6333C7.39826 18.9867 7.44576 19.5125 7.79909 19.8067C7.95576 19.9367 8.14409 20 8.33242 20C8.57159 20 8.80826 19.8983 8.97326 19.7L12.6833 15.2483L16.2374 17.3817C16.5866 17.5908 17.0349 17.5175 17.2991 17.2092L20.8333 13.0858V15C20.8333 15.46 21.2058 15.8333 21.6666 15.8333C22.1274 15.8333 22.4999 15.46 22.4999 15V10.8333C22.4999 10.8225 22.4941 10.8133 22.4933 10.8025Z" fill="#231F20"/>
<mask id="mask0" mask-type="alpha" maskUnits="userSpaceOnUse" x="7" y="10" width="16" height="10">
<path fill-rule="evenodd" clip-rule="evenodd" d="M22.4933 10.8025C22.4916 10.7425 22.4741 10.6858 22.4583 10.6283C22.4458 10.58 22.4399 10.5308 22.4191 10.4867C22.3999 10.4433 22.3674 10.4083 22.3391 10.3683C22.3041 10.3175 22.2724 10.2667 22.2274 10.225C22.2199 10.2175 22.2166 10.2075 22.2083 10.2008C22.1783 10.175 22.1416 10.1658 22.1091 10.145C22.0591 10.1125 22.0099 10.0792 21.9533 10.0575C21.8974 10.0375 21.8424 10.0325 21.7849 10.0242C21.7449 10.0183 21.7091 10 21.6666 10H17.4999C17.0391 10 16.6666 10.3733 16.6666 10.8333C16.6666 11.2933 17.0391 11.6667 17.4999 11.6667H19.8549L16.4916 15.59L12.9283 13.4525C12.5758 13.2392 12.1224 13.3175 11.8591 13.6333L7.69242 18.6333C7.39826 18.9867 7.44576 19.5125 7.79909 19.8067C7.95576 19.9367 8.14409 20 8.33242 20C8.57159 20 8.80826 19.8983 8.97326 19.7L12.6833 15.2483L16.2374 17.3817C16.5866 17.5908 17.0349 17.5175 17.2991 17.2092L20.8333 13.0858V15C20.8333 15.46 21.2058 15.8333 21.6666 15.8333C22.1274 15.8333 22.4999 15.46 22.4999 15V10.8333C22.4999 10.8225 22.4941 10.8133 22.4933 10.8025Z" fill="white"/>
</mask>
<g mask="url(#mask0)">
<rect x="5" y="5" width="20" height="20" fill="white"/>
</g>
</svg>
